<svg 
class="svg-icon" 
viewBox="0 0 1024 1024" 
version="1.1" 
xmlns="http://www.w3.org/2000/svg">

<path fill="#1f619c" d="M832 85.333333H192C134.4 85.333333 85.333333 132.266667 85.333333 192v640c0 59.733333 46.933333 106.666667 106.666667 106.666667h640c59.733333 0 106.666667-46.933333 106.666667-106.666667V192c0-59.733333-46.933333-106.666667-106.666667-106.666667zM298.666667 768c-23.466667 0-42.666667-19.2-42.666667-42.666667s19.2-42.666667 42.666667-42.666666 42.666667 19.2 42.666666 42.666666-19.2 42.666667-42.666666 42.666667z m0-213.333333c-23.466667 0-42.666667-19.2-42.666667-42.666667s19.2-42.666667 42.666667-42.666667 42.666667 19.2 42.666666 42.666667-19.2 42.666667-42.666666 42.666667z m0-213.333334c-23.466667 0-42.666667-19.2-42.666667-42.666666s19.2-42.666667 42.666667-42.666667 42.666667 19.2 42.666666 42.666667-19.2 42.666667-42.666666 42.666666z m426.666666 426.666667H469.333333c-23.466667 0-42.666667-19.2-42.666666-42.666667s19.2-42.666667 42.666666-42.666666h256c23.466667 0 42.666667 19.2 42.666667 42.666666s-19.2 42.666667-42.666667 42.666667z m0-213.333333H469.333333c-23.466667 0-42.666667-19.2-42.666666-42.666667s19.2-42.666667 42.666666-42.666667h256c23.466667 0 42.666667 19.2 42.666667 42.666667s-19.2 42.666667-42.666667 42.666667z m0-213.333334H469.333333c-23.466667 0-42.666667-19.2-42.666666-42.666666s19.2-42.666667 42.666666-42.666667h256c23.466667 0 42.666667 19.2 42.666667 42.666667s-19.2 42.666667-42.666667 42.666666z" /></svg>